<svg id="Layer_1" data-name="Layer 1" xmlns="http://www.w3.org/2000/svg" viewBox="0 0 103.07 50.6"><defs><style>.cls-1{fill:#faa542;}</style></defs><path class="cls-1" d="M99.69,39.92,95,33a4.92,4.92,0,0,0-3.51-1.46H85.89v3.83h5.58a1.18,1.18,0,0,1,.81.33l2.13,4.33H99.8Z"/><path class="cls-1" d="M95.5,22.1l-6.89,9.13a1.14,1.14,0,0,1-.81.33H85.89v3.83H87.8a5,5,0,0,0,3.52-1.46L99.8,22.1Z"/><path class="cls-1" d="M63.64,31.4a1.16,1.16,0,0,1,1.15,1.15v2.53a1.16,1.16,0,0,1-1.15,1.15H58.48a1.16,1.16,0,0,1-1.15-1.15V32.55a1.16,1.16,0,0,1,1.15-1.15h5.16m0-3.82H58.48a5,5,0,0,0-5,5v2.53a5,5,0,0,0,5,5h5.16a5,5,0,0,0,5-5V32.55a5,5,0,0,0-5-5Z"/><rect class="cls-1" x="81.11" y="27.6" width="3.83" height="7.79"/><path class="cls-1" d="M73.76,35.08V32.55A1.15,1.15,0,0,1,74.9,31.4H78l2-3.82H74.9a5,5,0,0,0-5,5v2.53a5,5,0,0,0,5,5h8l2-3.82h-10A1.15,1.15,0,0,1,73.76,35.08Z"/><path class="cls-1" d="M50.72,46.44V43.29h3.16v.57H51.3v.29h2.58v.57H51.3v1.72Z"/><path class="cls-1" d="M59.4,46.44V43.29H60v3.15Z"/><path class="cls-1" d="M66.36,46.44V43.86H65.5v-.57h2.29v.57h-.86v2.58Z"/><path class="cls-1" d="M73.88,44.29v2.15h-.57V42.86l2.58,2.58V43.29h.58v3.58Z"/><path class="cls-1" d="M82,46.44V43.29h3.15v.57H82.56v.29h2.58v.57H82.56v1.15h2.58v.57Z"/><path class="cls-1" d="M90.66,46.44v-.57h2.58V44.72H90.66V43.29h3.16v.57H91.24v.29h2.58v2.29Z"/><path class="cls-1" d="M99.34,46.44v-.57h2.58V44.72H99.34V43.29h3.16v.57H99.91v.29h2.59v2.29Z"/><path class="cls-1" d="M88.27,14H81.09v3.82h7.18a1.15,1.15,0,0,1,1.14,1.15v2.53a1.15,1.15,0,0,1-1.14,1.15H81.09v3.82h7.18a5,5,0,0,0,5-5V18.92A5,5,0,0,0,88.27,14Z"/><polygon class="cls-1" points="69.08 22.59 67.08 26.41 80.09 26.41 80.09 22.59 69.08 22.59"/><polygon class="cls-1" points="69.62 21.56 80.09 21.56 80.09 18.79 71.08 18.79 69.62 21.56"/><polygon class="cls-1" points="73.61 13.96 71.6 17.79 80.09 17.79 80.09 13.96 73.61 13.96"/><path class="cls-1" d="M68.1,14l-4.37,8.32L59.36,14h-3a5.32,5.32,0,0,1,2,4.18,5.54,5.54,0,0,1-.27,1.69l3.44,6.56h4.32L72.42,14Z"/><path class="cls-1" d="M53.23,26.4h4.32l-2.39-4.56a4.2,4.2,0,0,0-2-7.89H44.66l2,3.81h6.48a.38.38,0,0,1,.38.38.39.39,0,0,1-.38.39H47.06l2,3.82h2Z"/><polygon class="cls-1" points="43.48 13.97 39.16 13.97 35.11 21.7 39.43 21.7 41.32 18.08 45.69 26.4 50.01 26.4 43.48 13.97"/><path class="cls-1" d="M42.73,36H46l2.12,4h4.32L50,35.49a4.2,4.2,0,0,0-2-7.89h-9.3l-1.11-2.35L39,22.6H31.44a1.16,1.16,0,0,1-1.15-1.15V18.92a1.16,1.16,0,0,1,1.15-1.15H36L38,14H32.22L26.78,2.51,25.93.74l-.84,1.77L15.72,22.25l-2.8-5.83-.58-1.22-.63,1.22L1.39,36.48.59,38,2.39,38c1.56,0,3.12-.13,4.69-.2a75.23,75.23,0,0,1,21.65,2.77,75.47,75.47,0,0,1,20,9l.56.36-.28-.6ZM48,31.42a.39.39,0,0,1,0,.77H40.91l-.37-.77ZM12.34,18.26l2.86,5.61.52,1,.52-1L25.93,5l4.64,9a5,5,0,0,0-4.1,4.89v2.53a5,5,0,0,0,5,5h5.47l9,17.61a75.84,75.84,0,0,0-19.38-9.7,77.36,77.36,0,0,0-20-3.78ZM29.07,39.42a76.93,76.93,0,0,0-22-3.62L4,35.86l1.22-2.57A75,75,0,0,1,26.1,35.81,75.22,75.22,0,0,1,46.17,44.5l2.19,4.27A76.16,76.16,0,0,0,29.07,39.42Z"/></svg>