<svg id="Layer_1" data-name="Layer 1" xmlns="http://www.w3.org/2000/svg" viewBox="0 0 55.98 50.71"><defs><style>.cls-1{fill:#fff;}</style></defs><path class="cls-1" d="M30,34.89a84.65,84.65,0,0,1,20.53,9.69l-20-42h0L29.64.84l-.83,1.75L19.43,22.34l-2.79-5.83h0l-.59-1.22-.63,1.22L8.15,30.65A87.25,87.25,0,0,1,30,34.89Z"/><path class="cls-1" d="M52.75,49.34l-2-4.24a84.26,84.26,0,0,0-21.22-8.73,84.35,84.35,0,0,0-22.77-3L5.11,36.56h0L4.3,38.14l1.81-.08,4.68-.2A75,75,0,0,1,52.47,49.58h0L53,50Z"/></svg>